<svg width="61" height="15" viewBox="0 0 61 15" fill="none" xmlns="http://www.w3.org/2000/svg">
<mask id="mask0_0_5" style="mask-type:luminance" maskUnits="userSpaceOnUse" x="0" y="0" width="62" height="15">
<path fill-rule="evenodd" clip-rule="evenodd" d="M0 0H61.0003V14.3244H0V0Z" fill="white"/>
</mask>
<g mask="url(#mask0_0_5)">
<path fill-rule="evenodd" clip-rule="evenodd" d="M0 0V1.13466H3.21637V10.7433H4.53844V1.13466H7.77455V0H0Z" fill="#294E80"/>
<path fill-rule="evenodd" clip-rule="evenodd" d="M61 10.6547C60.6322 10.8224 60.2836 10.8971 59.9736 10.8971C58.8116 10.8971 58.2306 10.2263 58.2306 8.88512V3.83712H56.8169V3.2226H58.2306V1.24792L58.5792 1.13616L58.928 1.02439V3.2226H61V3.83712H58.928V8.82924C58.928 9.35081 59.0053 9.72335 59.1798 9.9657C59.3539 10.2078 59.6444 10.3194 60.0512 10.3194C60.3417 10.3194 60.6514 10.2263 61 10.04V10.6547ZM50.5809 6.61262V7.56262C50.5809 8.32633 50.8327 8.97829 51.3169 9.51848C51.8206 10.0589 52.4595 10.3383 53.273 10.3383C54.0669 10.3383 54.7255 10.0028 55.2289 9.35084C55.7326 8.68025 55.9844 7.82358 55.9844 6.74301C55.9844 5.79302 55.7518 5.04792 55.287 4.4891C54.8224 3.93028 54.2218 3.65087 53.4472 3.65087C52.5371 3.65087 51.8206 3.94891 51.3169 4.54517C50.8133 5.14106 50.5809 5.81165 50.5809 6.61262ZM50.6197 9.42527H50.5809V14.2499H49.884V3.20375H50.5809V4.76844H50.6197C50.9102 4.20962 51.2975 3.78138 51.8206 3.48315C52.3435 3.18512 52.9245 3.03629 53.544 3.03629C54.5511 3.03629 55.3257 3.37139 55.8875 4.02335C56.449 4.69393 56.7201 5.58805 56.7201 6.72431C56.7201 7.99097 56.3909 9.01547 55.7518 9.79782C55.1129 10.5804 54.2606 10.9713 53.215 10.9713C52.053 10.9529 51.1815 10.4498 50.6197 9.42527ZM47.5019 3.20386H48.199V10.7666H47.5019V3.20386ZM47.8504 1.30432C47.6954 1.30432 47.5599 1.24844 47.4435 1.13668C47.3273 1.02491 47.2694 0.894708 47.2694 0.726876C47.2694 0.55923 47.3273 0.429023 47.4435 0.335888C47.5599 0.24275 47.6954 0.186682 47.8504 0.186682C48.0051 0.186682 48.1408 0.24275 48.2764 0.335888C48.3924 0.429023 48.4505 0.55923 48.4505 0.726876C48.4505 0.875892 48.3924 1.02491 48.2764 1.13668C48.1408 1.24844 48.0051 1.30432 47.8504 1.30432ZM46.7273 3.91172C46.4949 3.74408 46.2235 3.66957 45.8943 3.66957C45.2748 3.66957 44.7519 3.98623 44.345 4.60093C43.9191 5.21564 43.7255 6.09112 43.7255 7.22757V10.7852H43.0281V3.20389H43.7255V4.88034H43.764C43.9383 4.3029 44.2288 3.85584 44.6161 3.53917C45.0035 3.2227 45.4489 3.05487 45.9718 3.05487C46.2623 3.05487 46.5336 3.09212 46.7464 3.18526V3.91172H46.7273ZM42.0402 10.4316C41.4593 10.7669 40.7619 10.9531 39.9487 10.9531C38.8836 10.9531 38.0121 10.599 37.3534 9.89119C36.6949 9.18354 36.3659 8.27061 36.3659 7.11572C36.3659 5.92376 36.7337 4.93632 37.4696 4.1726C38.2057 3.40907 39.1545 3.0177 40.3165 3.0177C40.917 3.0177 41.498 3.12965 42.0594 3.37163V4.13534C41.498 3.80005 40.8783 3.63241 40.2196 3.63241C39.29 3.63241 38.5543 3.94907 37.9733 4.5824C37.3923 5.21573 37.121 6.05396 37.121 7.05984C37.121 8.04708 37.3923 8.82943 37.9152 9.4255C38.4379 10.0218 39.1353 10.3196 39.9872 10.3196C40.7815 10.3196 41.4593 10.1149 42.0402 9.72354V10.4316ZM29.7037 10.3942V9.556C30.4977 10.0401 31.2919 10.2823 32.1053 10.2823C32.9572 10.2823 33.6159 10.1148 34.0611 9.76072C34.5065 9.40699 34.7198 8.9413 34.7198 8.32641C34.7198 7.78641 34.5646 7.35779 34.2741 7.0225C33.9836 6.70584 33.3254 6.25878 32.3375 5.69996C31.2142 5.06663 30.5173 4.54507 30.2268 4.13527C29.9363 3.70684 29.7811 3.22271 29.7811 2.68233C29.7811 1.93724 30.091 1.30391 30.6914 0.782348C31.2919 0.260784 32.1053 0 33.1122 0C33.7706 0 34.4293 0.111764 35.0683 0.316666V1.08057C34.4293 0.801161 33.7319 0.651955 32.996 0.651955C32.2407 0.651955 31.6597 0.83823 31.2142 1.19215C30.7688 1.5647 30.5558 2.01194 30.5558 2.57076C30.5558 3.11076 30.7109 3.53919 31.0014 3.85586C31.2919 4.17271 31.9502 4.61976 32.938 5.15977C33.9643 5.71859 34.6421 6.22171 34.9907 6.64995C35.3393 7.07838 35.4944 7.58132 35.4944 8.15895C35.4944 8.97837 35.2039 9.63033 34.6229 10.1521C34.0419 10.6736 33.209 10.9156 32.1438 10.9156C31.7565 10.9156 31.3306 10.8599 30.8269 10.748C30.3236 10.6362 29.9554 10.5431 29.7037 10.3942ZM27.7866 6.2588C27.7866 5.55114 27.6125 5.01076 27.2637 4.61978C26.9151 4.22842 26.431 4.04214 25.8306 4.04214C25.2302 4.04214 24.7267 4.24723 24.3202 4.65685C23.9133 5.06665 23.6424 5.60684 23.5456 6.2588H27.7866ZM29.084 7.28327H23.5454C23.5646 8.1215 23.797 8.77345 24.2424 9.23914C24.6878 9.70482 25.3076 9.92853 26.1016 9.92853C26.9924 9.92853 27.806 9.64912 28.5417 9.0903V10.2264C27.8445 10.7109 26.9345 10.953 25.8111 10.953C24.7074 10.953 23.8359 10.6177 23.1966 9.92853C22.5575 9.23914 22.2477 8.27052 22.2477 7.0413C22.2477 5.86759 22.5963 4.89916 23.2935 4.17251C23.9906 3.42741 24.8428 3.05487 25.8694 3.05487C26.8956 3.05487 27.6896 3.37153 28.2512 4.02349C28.8129 4.65681 29.1034 5.55111 29.1034 6.68719L29.084 7.28327ZM15.4306 6.63128V7.69323C15.4306 8.32637 15.6436 8.84812 16.0696 9.27655C16.4957 9.70479 17.0186 9.9285 17.6771 9.9285C18.4323 9.9285 19.0327 9.64909 19.4783 9.09027C19.9042 8.53146 20.1172 7.74892 20.1172 6.74305C20.1172 5.90482 19.9236 5.23423 19.5169 4.76855C19.1102 4.28443 18.5679 4.0609 17.8707 4.0609C17.1348 4.0609 16.5538 4.30287 16.1084 4.78718C15.6436 5.27167 15.4306 5.88619 15.4306 6.63128ZM15.4505 9.66766H15.412V14.2314H14.1531V3.20398H15.412V4.52671H15.4505C16.0702 3.52064 16.9804 3.0177 18.1618 3.0177C19.1688 3.0177 19.9631 3.353 20.5245 4.02358C21.0861 4.69416 21.3766 5.6069 21.3766 6.74317C21.3766 8.01001 21.0474 9.0157 20.4083 9.77961C19.7694 10.5431 18.8979 10.9157 17.7938 10.9157C16.8061 10.9531 16.0121 10.5247 15.4505 9.66766ZM13.3974 3.20386L9.77586 11.9775C9.13677 13.542 8.22655 14.3244 7.06457 14.3244C6.73534 14.3244 6.46421 14.2871 6.25118 14.2312V13.1509C6.52231 13.244 6.77408 13.2814 6.9873 13.2814C7.6262 13.2814 8.09099 12.9089 8.42022 12.1822L9.03994 10.7479L5.98005 3.20386H7.37463L9.50493 9.01559C9.5241 9.09028 9.5822 9.27656 9.65967 9.59322H9.69859C9.71776 9.48127 9.77586 9.295 9.85333 9.0344L12.0805 3.20386H13.3974Z" fill="#294E80"/>
</g>
</svg>
